# xmcd
#
# Track frame offsets:
#	180
#	15687
#	32731
#	51642
#	68054
#	86904
#	93124
#	110472
#	129890
#	146183
#	165835
#	183494
#	202515
#	226223
#
# Disc length: 3378 seconds
#
# Revision: 1
# Processed by: cddbd v1.5.1PL0 Copyright (c) Steve Scherf et al.
# Submitted via: EasyCDDAExtractor 7.0.6.1
#
DISCID=b10d300e
DTITLE=Mel Waiters - I'm Serious
DYEAR=1995
DGENRE=R&B
TTITLE0=Whatever It Took
TTITLE1=Something In Common
TTITLE2=Hit It and Quit It
TTITLE3=I'm Serious
TTITLE4=Caught My Eye
TTITLE5=What The Rain Does To Me
TTITLE6=Make'm Like You
TTITLE7=Pressure
TTITLE8=Spend More Time
TTITLE9=Are You Into Me
TTITLE10=Let's Do Each Other
TTITLE11=What The Rain Does
TTITLE12=Hit It and Quit It (Live)
TTITLE13=I'm Serious (Live)
EXTD=
EXTT0=
EXTT1=
EXTT2=
EXTT3=
EXTT4=
EXTT5=
EXTT6=
EXTT7=
EXTT8=
EXTT9=
EXTT10=
EXTT11=
EXTT12=
EXTT13=
PLAYORDER=
